<?xml version="1.0" encoding="UTF-8"?>
<svg xmlns="http://www.w3.org/2000/svg" width="30" height="30" viewBox="0 0 30 30" fill="none">
  <path fill-rule="evenodd" clip-rule="evenodd" d="M15.3396 0C14.7649 0 14.1902 0.0440611 13.6499 0.0881222C14.4538 0.634674 15.2117 1.24589 15.9162 1.9157L16.4909 2.45018L15.9162 3.02489C15.4092 3.49648 14.9344 4.00143 14.4948 4.53638V4.58044C14.4158 4.66499 14.3416 4.75389 14.2725 4.84672C14.627 4.81005 14.9833 4.79534 15.3396 4.80266C18.0262 4.83944 20.5903 5.9325 22.4771 7.84535C24.364 9.7582 25.4218 12.337 25.4218 15.0239C25.4218 17.7107 24.364 20.2895 22.4771 22.2024C20.5903 24.1152 18.0262 25.2083 15.3396 25.2451C13.4546 25.256 11.6052 24.7319 10.0063 23.7336C9.23935 23.8222 8.46799 23.867 7.69595 23.8677C7.33965 23.8753 6.98323 23.86 6.62891 23.8217C6.67006 25.0262 6.77429 26.2277 6.94117 27.4213C9.41419 29.113 12.3433 30.0123 15.3396 29.9999C17.3094 29.9999 19.2599 29.6119 21.0798 28.858C22.8997 28.1042 24.5533 26.9993 25.9461 25.6065C27.339 24.2136 28.4439 22.56 29.1977 20.7401C29.9515 18.9203 30.3395 16.9697 30.3395 14.9999C30.3395 13.0301 29.9515 11.0796 29.1977 9.2597C28.4439 7.43983 27.339 5.78625 25.9461 4.39338C24.5533 3.0005 22.8997 1.89562 21.0798 1.1418C19.2599 0.387985 17.3094 0 15.3396 0ZM7.20729 2.3996C8.23333 1.73362 9.3374 1.19638 10.4946 0.799994C10.1166 1.49263 9.77448 2.2043 9.46973 2.93217C8.72614 2.71247 7.9708 2.53467 7.20729 2.3996ZM6.36398 7.85357C6.96384 7.81353 7.53383 7.77549 8.14028 7.77549C7.51181 8.3766 6.97309 9.065 6.54067 9.81954C6.37924 9.1767 6.26021 8.52396 6.18435 7.86552L6.36398 7.85357ZM5.82996 22.9306V23.0187L5.69586 22.9785C4.55242 22.8819 3.42121 22.6734 2.31849 22.3559L2.23036 22.3119L2.27443 22.2218C2.61551 21.1588 3.03096 20.1211 3.51771 19.1165L3.56369 19.0264L3.65181 19.0705C4.39941 19.4973 5.17078 19.8811 5.96215 20.2199L6.05218 20.264V20.3521C5.90981 21.2043 5.83551 22.0666 5.82996 22.9306ZM5.82993 23.8172V23.7291H5.73989C4.76752 23.6278 3.80261 23.4647 2.85102 23.2406L2.58473 23.1965L2.71883 23.4187C3.58922 24.7268 4.65304 25.8953 5.87399 26.8842L6.05215 27.0624V26.7501C5.91638 25.7781 5.84216 24.7985 5.82993 23.8172ZM14.2724 2.53203C13.9621 2.84429 13.6498 3.19869 13.3395 3.55501C13.3012 3.59907 13.0732 3.86535 12.805 4.22359C12.1839 3.92841 11.5473 3.67432 10.9164 3.42248L10.8069 3.37877C11.1579 2.51841 11.5735 1.68589 12.0502 0.888357C12.8193 1.39685 13.5611 1.9455 14.2724 2.53203ZM3.16333 12.1322L3.20739 12.2203L3.29551 12.1763C3.99506 11.6765 4.72226 11.2167 5.47366 10.7989L5.56178 10.7548V10.6648C5.33145 9.80582 5.16813 8.93027 5.07328 8.04603V7.95599H4.98516C3.8797 8.15763 2.79387 8.45505 1.73996 8.84488L1.65184 8.88894L1.6959 8.97898C2.04748 10.0888 2.54068 11.1486 3.16333 12.1322ZM2.89697 13.6422L2.98509 13.5541L3.03873 13.6805C3.52191 14.3592 4.04117 15.0115 4.59427 15.6345L4.63834 15.6786L4.59427 15.7686C4.10663 16.4224 3.65883 17.105 3.25329 17.8127L3.20922 17.9008L3.1211 17.8567C2.2539 17.2858 1.42223 16.6627 0.630693 15.9908L0.540655 15.9008L0.630693 15.8203C1.32991 15.038 2.08751 14.3098 2.89697 13.6422ZM8.89512 23.0638H9.1614L8.93918 22.8856C8.13336 22.2353 7.4424 21.4543 6.89513 20.5753V20.5312L6.71889 20.4412V20.5753C6.61305 21.3565 6.55356 22.1433 6.54073 22.9316V23.0197H6.62885C6.80701 23.0197 6.98469 23.0307 7.16237 23.0417C7.34005 23.0528 7.51773 23.0638 7.69589 23.0638H8.89512ZM9.02918 4.26681C8.77505 4.97872 8.56708 5.70628 8.40658 6.44496C7.63462 6.44247 6.86318 6.48533 6.09624 6.57331C6.04518 5.59578 6.0599 4.61593 6.1403 3.64037C7.11676 3.78121 8.0821 3.99054 9.02918 4.26681ZM9.828 6.39744C10.4928 5.99534 11.1923 5.65362 11.918 5.37637C11.4005 5.11686 10.8653 4.89409 10.3165 4.70971C10.1403 5.24227 9.9621 5.82081 9.828 6.39744ZM2.76483 18.5828H2.85104L2.80889 18.7591C2.40821 19.5692 2.052 20.4006 1.74185 21.2495L1.65372 21.4717L1.5656 21.2495C0.950708 19.9283 0.545465 18.5193 0.364458 17.0733L0.320397 16.8051L0.542618 16.9832C1.25395 17.5561 1.99577 18.0901 2.76483 18.5828ZM4.76291 4.35484C3.86954 5.24507 3.09318 6.24545 2.45257 7.33184C3.20171 7.11128 3.99614 6.93601 4.78904 6.76108L4.78905 6.76108L4.80697 6.75713C4.76291 5.95445 4.76291 5.1556 4.76291 4.35484ZM5.20733 14.6201V14.8863L5.08089 14.6622C4.74381 14.2917 4.43317 13.8694 4.12808 13.4546L4.12797 13.4545C4.03084 13.3225 3.93428 13.1912 3.83761 13.0626L3.70351 12.9726L3.79355 12.9285C4.34525 12.5441 4.89696 12.2022 5.44866 11.8602L5.44869 11.8602L5.44871 11.8601L5.51767 11.8174L5.73989 11.6852L5.65177 11.9534C5.38898 12.8193 5.23959 13.7157 5.20733 14.6201ZM5.33956 16.4429L5.2955 16.1766L5.16331 16.3988C4.76293 16.9735 4.36255 17.598 4.01389 18.2206L3.96792 18.3088L4.05796 18.3528C4.66149 18.6993 5.30849 19.0023 5.95669 19.3059L5.95675 19.3059L6.01197 19.3318L6.23419 19.4199L6.14607 19.1977C5.74401 18.3238 5.47228 17.3956 5.33956 16.4429ZM2.49663 12.7905L2.40659 12.8346C1.68078 13.3765 1.0245 14.0057 0.452574 14.7081L0.274414 14.8863V14.62C0.308046 13.1858 0.547396 11.7639 0.985138 10.3978L1.07518 10.1315L1.1633 10.3537C1.54906 11.1594 1.97948 11.9428 2.45256 12.7005L2.49663 12.7905Z" fill="#43B049"></path>
</svg>

