<?xml version="1.0" encoding="UTF-8"?>
<svg xmlns="http://www.w3.org/2000/svg" width="178" height="30" viewBox="0 0 178 30" fill="none">
  <path fill-rule="evenodd" clip-rule="evenodd" d="M79.9522 6.62031C79.9171 6.54289 79.8609 6.47689 79.7901 6.42981C79.7193 6.38273 79.6368 6.35647 79.5518 6.35402H79.3296C79.2431 6.34969 79.1576 6.37322 79.0855 6.42116C79.0134 6.46909 78.9586 6.5389 78.9292 6.62031L71.3756 23.0187C71.3399 23.0852 71.3227 23.1601 71.3256 23.2356C71.3286 23.311 71.3517 23.3843 71.3926 23.4478C71.4334 23.5113 71.4905 23.5627 71.5579 23.5968C71.6253 23.6308 71.7006 23.6462 71.776 23.6413H73.9081C74.0645 23.6516 74.2198 23.6088 74.3488 23.5198C74.4779 23.4307 74.573 23.3008 74.6189 23.1509L75.8181 20.5302H83.1073L84.3066 23.1509C84.4847 23.5072 84.6629 23.6413 85.0173 23.6413H87.1514C87.5058 23.6413 87.7261 23.329 87.5498 23.0187L79.9522 6.62031ZM76.9292 17.8157L79.3296 12.4823H79.4177L81.8621 17.8157H76.9292ZM45.706 6.42979C45.7768 6.47686 45.833 6.54286 45.8681 6.62028L53.4581 23.0187C53.6343 23.329 53.414 23.6413 53.0596 23.6413H50.9255C50.5711 23.6413 50.393 23.5072 50.2148 23.1509L49.0156 20.5302H41.7359L40.5348 23.1509C40.4889 23.3007 40.3938 23.4307 40.2648 23.5197C40.1357 23.6088 39.9804 23.6516 39.824 23.6413H37.6919C37.6165 23.6461 37.5412 23.6308 37.4738 23.5967C37.4064 23.5627 37.3493 23.5113 37.3085 23.4478C37.2676 23.3843 37.2445 23.311 37.2415 23.2355C37.2386 23.1601 37.2558 23.0852 37.2915 23.0187L44.8451 6.62028C44.8748 6.53905 44.9296 6.46941 45.0016 6.42152C45.0737 6.37362 45.1591 6.34997 45.2455 6.354H45.4677C45.5527 6.35645 45.6352 6.38271 45.706 6.42979ZM45.2455 12.4823L42.8451 17.8156H47.7838L45.3336 12.4823H45.2455ZM66.7971 6.62027H69.0193C69.0785 6.6166 69.1378 6.6256 69.1933 6.64666C69.2488 6.66773 69.2992 6.70037 69.341 6.74243C69.3829 6.78448 69.4153 6.83498 69.4362 6.89055C69.457 6.94612 69.4657 7.0055 69.4618 7.06471V23.419C69.4613 23.5368 69.4143 23.6495 69.3311 23.7327C69.2478 23.816 69.1351 23.863 69.0174 23.8635H68.4427L58.2665 12.7084H58.2224V23.1508C58.2219 23.2686 58.1749 23.3813 58.0917 23.4646C58.0084 23.5478 57.8957 23.5948 57.778 23.5953H55.5557C55.4404 23.5876 55.3317 23.5384 55.25 23.4566C55.1682 23.3749 55.1189 23.2662 55.1113 23.1508V6.79843C55.1118 6.68071 55.1588 6.56796 55.242 6.48472C55.3253 6.40148 55.438 6.35449 55.5557 6.35399H56.1764L66.3086 17.1087H66.3545V7.06471C66.3545 6.94717 66.4011 6.83441 66.484 6.75112C66.567 6.66783 66.6795 6.62078 66.7971 6.62027ZM100.438 19.1681C100.552 19.1681 100.663 19.2096 100.749 19.285L102.214 20.8405C102.294 20.9361 102.334 21.0586 102.326 21.1826C102.317 21.3067 102.262 21.4229 102.17 21.5072C100.59 23.0439 98.4647 23.8912 96.2605 23.8635C95.1108 23.8635 93.9724 23.637 92.9102 23.1971C91.848 22.7571 90.8829 22.1122 90.07 21.2993C89.257 20.4863 88.6121 19.5212 88.1722 18.459C87.7322 17.3969 87.5057 16.2584 87.5057 15.1087C87.5057 13.959 87.7322 12.8206 88.1722 11.7584C88.6121 10.6963 89.257 9.73115 90.07 8.91819C90.8829 8.10524 91.848 7.46037 92.9102 7.0204C93.9724 6.58044 95.1108 6.35399 96.2605 6.35399C98.7049 6.35399 100.483 7.15475 102.126 8.62026C102.176 8.65893 102.217 8.70776 102.247 8.76351C102.277 8.81926 102.294 8.88067 102.298 8.94368C102.303 9.00669 102.293 9.06986 102.271 9.12903C102.249 9.1882 102.215 9.24202 102.17 9.28692L100.705 10.7984C100.665 10.8407 100.617 10.8743 100.563 10.8973C100.51 10.9203 100.452 10.9322 100.394 10.9322C100.335 10.9322 100.278 10.9203 100.224 10.8973C100.171 10.8743 100.122 10.8407 100.082 10.7984C99.0478 9.89334 97.7231 9.38903 96.3486 9.37696C93.2394 9.37696 90.9272 11.9996 90.9272 15.0647C90.9272 18.0857 93.2835 20.6623 96.3946 20.6623C97.7628 20.6621 99.0861 20.1737 100.126 19.285C100.213 19.2096 100.323 19.1681 100.438 19.1681ZM112.259 6.35407C110.529 6.35372 108.838 6.86576 107.399 7.82558C105.96 8.7854 104.837 10.15 104.173 11.7471C103.509 13.3442 103.333 15.1023 103.667 16.7995C104.001 18.4966 104.83 20.0568 106.05 21.2831C107.27 22.5094 108.826 23.3469 110.521 23.6898C112.216 24.0327 113.975 23.8657 115.576 23.2099C117.177 22.5541 118.547 21.4388 119.514 20.0049C120.482 18.571 121.003 16.8826 121.011 15.1529C121.023 13.9982 120.804 12.8528 120.369 11.7832C119.933 10.7136 119.29 9.74125 118.475 8.92257C117.661 8.1039 116.692 7.45524 115.625 7.0143C114.558 6.57337 113.413 6.34894 112.259 6.35407ZM112.259 20.7084C110.797 20.6813 109.405 20.0818 108.381 19.0387C107.357 17.9957 106.783 16.5925 106.783 15.1309C106.783 13.6692 107.357 12.266 108.381 11.223C109.405 10.1799 110.797 9.58038 112.259 9.55329C113 9.53956 113.736 9.67367 114.425 9.9478C115.114 10.2219 115.741 10.6306 116.27 11.1499C116.799 11.6692 117.219 12.2887 117.506 12.9722C117.793 13.6557 117.94 14.3896 117.94 15.1309C117.94 15.8721 117.793 16.606 117.506 17.2895C117.219 17.973 116.799 18.5926 116.27 19.1118C115.741 19.6311 115.114 20.0398 114.425 20.3139C113.736 20.588 113 20.7221 112.259 20.7084ZM135.366 6.62027H137.588C137.703 6.6288 137.81 6.67847 137.891 6.76013C137.972 6.8418 138.021 6.94996 138.028 7.06471V23.419C138.028 23.5368 137.981 23.6495 137.898 23.7327C137.814 23.816 137.702 23.863 137.584 23.8635H137.009L126.833 12.7084H126.789V23.1508C126.789 23.2686 126.742 23.3813 126.658 23.4646C126.575 23.5478 126.462 23.5948 126.345 23.5953H124.122C124.007 23.5876 123.898 23.5384 123.817 23.4566C123.735 23.3749 123.686 23.2662 123.678 23.1508V6.79843C123.678 6.68071 123.725 6.56796 123.809 6.48472C123.892 6.40148 124.005 6.35449 124.122 6.35399H124.745L134.877 17.1087H134.921V7.06471C134.922 6.94699 134.969 6.83424 135.052 6.751C135.135 6.66776 135.248 6.62078 135.366 6.62027ZM147.32 6.62097H141.542C141.427 6.62861 141.318 6.67789 141.236 6.75964C141.154 6.84139 141.105 6.95005 141.097 7.06541V23.1573C141.098 23.275 141.145 23.3878 141.228 23.471C141.311 23.5542 141.424 23.6012 141.542 23.6017H147.32C149.582 23.6017 151.752 22.703 153.352 21.1033C154.953 19.5035 155.852 17.3338 155.852 15.0711C155.852 10.4428 152.03 6.62097 147.32 6.62097ZM147.053 20.663H144.253V9.55199H147.017C150.172 9.55199 152.482 11.9524 152.482 15.1075C152.519 18.2646 150.209 20.663 147.053 20.663ZM164.605 6.70449L172.113 23.0626C172.145 23.1237 172.162 23.1916 172.162 23.2605C172.162 23.3295 172.145 23.3974 172.114 23.4586C172.082 23.5198 172.036 23.5723 171.979 23.6118C171.923 23.6513 171.857 23.6765 171.789 23.6852H169.657C169.3 23.6852 169.124 23.5511 168.946 23.1967L167.745 20.5742H160.465L159.266 23.1967C159.219 23.3459 159.124 23.4751 158.995 23.5636C158.866 23.6522 158.711 23.695 158.555 23.6852H156.421C156.346 23.6895 156.271 23.6737 156.204 23.6395C156.137 23.6053 156.08 23.554 156.039 23.4907C155.999 23.4274 155.976 23.3544 155.972 23.2792C155.969 23.204 155.986 23.1293 156.021 23.0626L163.584 6.70449C163.613 6.62291 163.668 6.55292 163.74 6.50495C163.812 6.45697 163.898 6.43356 163.984 6.4382H164.207C164.291 6.43988 164.374 6.46584 164.445 6.51304C164.515 6.56023 164.571 6.62667 164.605 6.70449ZM164.028 12.4861L161.628 17.8155H166.557L164.116 12.4861H164.028ZM175.138 23.3725H175.272C175.295 23.3711 175.316 23.3614 175.332 23.3452C175.349 23.3289 175.358 23.3073 175.36 23.2844V22.8399H175.626L175.804 23.3284C175.804 23.3725 175.848 23.3725 175.892 23.3725H176.07C176.094 23.3712 176.115 23.3615 176.132 23.3453C176.149 23.3291 176.159 23.3075 176.161 23.2844C176.115 23.2163 176.081 23.1375 176.047 23.0587L176.047 23.0586C176.014 22.9822 175.982 22.9059 175.938 22.8399C176.031 22.8093 176.112 22.7495 176.167 22.6694C176.223 22.5892 176.252 22.4931 176.249 22.3955C176.252 22.3305 176.242 22.2655 176.218 22.2047C176.195 22.1439 176.159 22.0888 176.113 22.0427C176.067 21.9967 176.012 21.9608 175.951 21.9374C175.89 21.9141 175.825 21.9037 175.76 21.907H175.185C175.163 21.9083 175.141 21.9181 175.125 21.9343C175.108 21.9505 175.099 21.9722 175.097 21.9951V23.2844C175.095 23.3383 175.094 23.3592 175.104 23.3673C175.11 23.3725 175.12 23.3725 175.138 23.3725ZM175.36 22.1733H175.716C175.74 22.1712 175.764 22.1744 175.786 22.1826C175.809 22.1909 175.829 22.2039 175.846 22.221C175.863 22.238 175.876 22.2585 175.884 22.281C175.892 22.3036 175.895 22.3276 175.892 22.3514C175.889 22.3973 175.87 22.4406 175.837 22.4733C175.805 22.506 175.762 22.526 175.716 22.5296H175.369L175.36 22.1733ZM176.129 23.9831C175.955 24.0539 175.769 24.0891 175.582 24.0868C175.301 24.0868 175.026 24.0035 174.792 23.8474C174.559 23.6913 174.377 23.4694 174.269 23.2097C174.161 22.9501 174.133 22.6644 174.188 22.3887C174.242 22.113 174.378 21.8598 174.576 21.6609C174.775 21.462 175.028 21.3265 175.303 21.2714C175.579 21.2164 175.865 21.2442 176.125 21.3515C176.384 21.4588 176.607 21.6407 176.763 21.8742C176.919 22.1077 177.003 22.3824 177.003 22.6634C177.006 22.8509 176.971 23.037 176.9 23.2107C176.83 23.3844 176.725 23.5423 176.593 23.6749C176.46 23.8076 176.303 23.9124 176.129 23.9831ZM176.221 21.6579C176.032 21.5316 175.809 21.4642 175.582 21.4642V21.4565C175.278 21.4634 174.988 21.5878 174.774 21.8035C174.56 22.0192 174.437 22.3096 174.433 22.6136C174.433 22.8409 174.5 23.0632 174.626 23.2522C174.753 23.4412 174.932 23.5885 175.142 23.6755C175.352 23.7625 175.583 23.7853 175.806 23.7409C176.029 23.6966 176.234 23.5871 176.395 23.4264C176.555 23.2656 176.665 23.0608 176.709 22.8379C176.754 22.6149 176.731 22.3838 176.644 22.1737C176.557 21.9637 176.41 21.7842 176.221 21.6579Z" fill="white"></path>
  <path fill-rule="evenodd" clip-rule="evenodd" d="M15.3396 0C14.7649 0 14.1902 0.0440611 13.6499 0.0881222C14.4538 0.634674 15.2117 1.24589 15.9162 1.9157L16.4909 2.45018L15.9162 3.02489C15.4092 3.49648 14.9344 4.00143 14.4948 4.53638V4.58044C14.4158 4.66499 14.3416 4.75389 14.2725 4.84672C14.627 4.81005 14.9833 4.79534 15.3396 4.80266C18.0262 4.83944 20.5903 5.9325 22.4771 7.84535C24.364 9.7582 25.4218 12.337 25.4218 15.0239C25.4218 17.7107 24.364 20.2895 22.4771 22.2024C20.5903 24.1152 18.0262 25.2083 15.3396 25.2451C13.4546 25.256 11.6052 24.7319 10.0063 23.7336C9.23935 23.8222 8.46799 23.867 7.69595 23.8677C7.33965 23.8753 6.98323 23.86 6.62891 23.8217C6.67006 25.0262 6.77429 26.2277 6.94117 27.4213C9.41419 29.113 12.3433 30.0123 15.3396 29.9999C17.3094 29.9999 19.2599 29.6119 21.0798 28.858C22.8997 28.1042 24.5533 26.9993 25.9461 25.6065C27.339 24.2136 28.4439 22.56 29.1977 20.7401C29.9515 18.9203 30.3395 16.9697 30.3395 14.9999C30.3395 13.0301 29.9515 11.0796 29.1977 9.2597C28.4439 7.43983 27.339 5.78625 25.9461 4.39338C24.5533 3.0005 22.8997 1.89562 21.0798 1.1418C19.2599 0.387985 17.3094 0 15.3396 0ZM7.20729 2.3996C8.23333 1.73362 9.3374 1.19638 10.4946 0.799994C10.1166 1.49263 9.77448 2.2043 9.46973 2.93217C8.72614 2.71247 7.9708 2.53467 7.20729 2.3996ZM6.36398 7.85357C6.96384 7.81353 7.53383 7.77549 8.14028 7.77549C7.51181 8.3766 6.97309 9.065 6.54067 9.81954C6.37924 9.1767 6.26021 8.52396 6.18435 7.86552L6.36398 7.85357ZM5.82996 22.9306V23.0187L5.69586 22.9785C4.55242 22.8819 3.42121 22.6734 2.31849 22.3559L2.23036 22.3119L2.27443 22.2218C2.61551 21.1588 3.03096 20.1211 3.51771 19.1165L3.56369 19.0264L3.65181 19.0705C4.39941 19.4973 5.17078 19.8811 5.96215 20.2199L6.05218 20.264V20.3521C5.90981 21.2043 5.83551 22.0666 5.82996 22.9306ZM5.82993 23.8172V23.7291H5.73989C4.76752 23.6278 3.80261 23.4647 2.85102 23.2406L2.58473 23.1965L2.71883 23.4187C3.58922 24.7268 4.65304 25.8953 5.87399 26.8842L6.05215 27.0624V26.7501C5.91638 25.7781 5.84216 24.7985 5.82993 23.8172ZM14.2724 2.53203C13.9621 2.84429 13.6498 3.19869 13.3395 3.55501C13.3012 3.59907 13.0732 3.86535 12.805 4.22359C12.1839 3.92841 11.5473 3.67432 10.9164 3.42248L10.8069 3.37877C11.1579 2.51841 11.5735 1.68589 12.0502 0.888357C12.8193 1.39685 13.5611 1.9455 14.2724 2.53203ZM3.16333 12.1322L3.20739 12.2203L3.29551 12.1763C3.99506 11.6765 4.72226 11.2167 5.47366 10.7989L5.56178 10.7548V10.6648C5.33145 9.80582 5.16813 8.93027 5.07328 8.04603V7.95599H4.98516C3.8797 8.15763 2.79387 8.45505 1.73996 8.84488L1.65184 8.88894L1.6959 8.97898C2.04748 10.0888 2.54068 11.1486 3.16333 12.1322ZM2.89697 13.6422L2.98509 13.5541L3.03873 13.6805C3.52191 14.3592 4.04117 15.0115 4.59427 15.6345L4.63834 15.6786L4.59427 15.7686C4.10663 16.4224 3.65883 17.105 3.25329 17.8127L3.20922 17.9008L3.1211 17.8567C2.2539 17.2858 1.42223 16.6627 0.630693 15.9908L0.540655 15.9008L0.630693 15.8203C1.32991 15.038 2.08751 14.3098 2.89697 13.6422ZM8.89512 23.0638H9.1614L8.93918 22.8856C8.13336 22.2353 7.4424 21.4543 6.89513 20.5753V20.5312L6.71889 20.4412V20.5753C6.61305 21.3565 6.55356 22.1433 6.54073 22.9316V23.0197H6.62885C6.80701 23.0197 6.98469 23.0307 7.16237 23.0417C7.34005 23.0528 7.51773 23.0638 7.69589 23.0638H8.89512ZM9.02918 4.26681C8.77505 4.97872 8.56708 5.70628 8.40658 6.44496C7.63462 6.44247 6.86318 6.48533 6.09624 6.57331C6.04518 5.59578 6.0599 4.61593 6.1403 3.64037C7.11676 3.78121 8.0821 3.99054 9.02918 4.26681ZM9.828 6.39744C10.4928 5.99534 11.1923 5.65362 11.918 5.37637C11.4005 5.11686 10.8653 4.89409 10.3165 4.70971C10.1403 5.24227 9.9621 5.82081 9.828 6.39744ZM2.76483 18.5828H2.85104L2.80889 18.7591C2.40821 19.5692 2.052 20.4006 1.74185 21.2495L1.65372 21.4717L1.5656 21.2495C0.950708 19.9283 0.545465 18.5193 0.364458 17.0733L0.320397 16.8051L0.542618 16.9832C1.25395 17.5561 1.99577 18.0901 2.76483 18.5828ZM4.76291 4.35484C3.86954 5.24507 3.09318 6.24545 2.45257 7.33184C3.20171 7.11128 3.99614 6.93601 4.78904 6.76108L4.78905 6.76108L4.80697 6.75713C4.76291 5.95445 4.76291 5.1556 4.76291 4.35484ZM5.20733 14.6201V14.8863L5.08089 14.6622C4.74381 14.2917 4.43317 13.8694 4.12808 13.4546L4.12797 13.4545C4.03084 13.3225 3.93428 13.1912 3.83761 13.0626L3.70351 12.9726L3.79355 12.9285C4.34525 12.5441 4.89696 12.2022 5.44866 11.8602L5.44869 11.8602L5.44871 11.8601L5.51767 11.8174L5.73989 11.6852L5.65177 11.9534C5.38898 12.8193 5.23959 13.7157 5.20733 14.6201ZM5.33956 16.4429L5.2955 16.1766L5.16331 16.3988C4.76293 16.9735 4.36255 17.598 4.01389 18.2206L3.96792 18.3088L4.05796 18.3528C4.66149 18.6993 5.30849 19.0023 5.95669 19.3059L5.95675 19.3059L6.01197 19.3318L6.23419 19.4199L6.14607 19.1977C5.74401 18.3238 5.47228 17.3956 5.33956 16.4429ZM2.49663 12.7905L2.40659 12.8346C1.68078 13.3765 1.0245 14.0057 0.452574 14.7081L0.274414 14.8863V14.62C0.308046 13.1858 0.547396 11.7639 0.985138 10.3978L1.07518 10.1315L1.1633 10.3537C1.54906 11.1594 1.97948 11.9428 2.45256 12.7005L2.49663 12.7905Z" fill="#43B049"></path>
</svg>

