<?xml version="1.0" encoding="UTF-8"?>
<!-- Generated by Pixelmator Pro 3.6.18

Correct view-port so there's not so much border.
-->
<svg width="1980" height="3057" viewBox="250 250 1980 3057" xmlns="http://www.w3.org/2000/svg">
    <path id="D" fill="#de484e" stroke="none" d="M 533.023193 451.780518 L 624.361511 451.780518 C 664.664734 451.780518 688.661682 458.346436 707.392578 480.685059 C 736.113953 515.13501 738.646912 584.792725 738.646912 725.137207 L 738.646912 969.872803 C 738.646912 1110.271484 736.113953 1179.820801 707.392578 1214.320801 C 688.661682 1236.663574 664.664734 1243.175293 624.361511 1243.175293 L 533.023193 1243.175293 Z M 390.516388 1363.976563 L 649.366699 1363.976563 C 749.907959 1363.976563 811.233521 1341.133545 848.42041 1292.998047 C 903.309204 1227.273193 905.050659 1121.21582 905.050659 958.532471 L 905.050659 736.477539 C 905.050659 573.843994 903.309204 467.736816 848.42041 402.007813 C 811.233521 353.876465 749.907959 331.004395 649.366699 331.004395 L 390.516388 331.004395 C 382.788208 331.004395 377.9888 333.354004 374.614258 336.757813 C 371.156342 340.211426 368.835815 344.906738 368.835815 352.743164 L 368.835815 1342.350098 C 368.835815 1350.074219 371.156342 1354.852783 374.614258 1358.252197 C 377.9888 1361.681152 382.788208 1363.976563 390.516388 1363.976563"/>
    <path id="T" fill="#de484e" stroke="none" d="M 993.222351 461.565186 L 1148.67749 461.565186 L 1148.67749 1342.348389 C 1148.67749 1350.07666 1150.893921 1354.851074 1154.347656 1358.250488 C 1157.780518 1361.679199 1162.500732 1363.974854 1170.283081 1363.974854 L 1302.607788 1363.974854 C 1310.385986 1363.974854 1315.106201 1361.679199 1318.51416 1358.250488 C 1321.99292 1354.851074 1324.259277 1350.07666 1324.259277 1342.348389 L 1324.259277 461.565186 L 1479.689331 461.565186 C 1487.442505 461.565186 1492.166992 459.269531 1495.703979 455.84082 C 1499.053589 452.441162 1501.39917 447.666992 1501.39917 439.938721 L 1501.39917 352.741455 C 1501.39917 344.90918 1499.053589 340.213867 1495.703979 336.756104 C 1492.166992 333.356445 1487.442505 331.006836 1479.689331 331.006836 L 993.222351 331.006836 C 985.414978 331.006836 980.694763 333.356445 977.241028 336.756104 C 973.783142 340.213867 971.462646 344.90918 971.462646 352.741455 L 971.462646 439.938721 C 971.462646 447.666992 973.783142 452.441162 977.241028 455.84082 C 980.694763 459.269531 985.414978 461.565186 993.222351 461.565186"/>
    <path id="U" fill="#de484e" stroke="none" d="M 1838.848145 1377.032715 C 1940.551758 1377.032715 2006.097656 1349.811279 2046.421631 1302.971436 C 2093.765625 1247.949219 2105.422363 1182.353516 2105.422363 1083.553711 L 2105.422363 352.742676 C 2105.422363 344.90625 2103.047607 340.210938 2099.569092 336.757324 C 2096.269531 333.353516 2091.474121 331.003906 2083.770996 331.003906 L 1962.7323 331.003906 C 1955.00415 331.003906 1950.229736 333.353516 1946.82605 336.757324 C 1943.451416 340.210938 1941.051758 344.90625 1941.051758 352.742676 L 1941.051758 1083.286865 C 1941.051758 1159.539795 1935.327515 1204.879883 1910.505615 1232.097168 C 1893.707764 1250.507324 1869.998291 1259.556152 1836.631714 1259.556152 C 1806.51062 1259.556152 1783.509399 1251.169678 1766.049072 1231.938721 C 1742.6521 1206.117188 1735.457153 1162.306152 1735.457153 1083.286865 L 1735.457153 352.742676 C 1735.457153 344.90625 1733.161621 340.210938 1729.707886 336.757324 C 1726.275024 333.353516 1721.55481 331.003906 1713.751587 331.003906 L 1592.842041 331.003906 C 1585.005493 331.003906 1580.314453 333.353516 1576.856567 336.757324 C 1573.402832 340.210938 1571.186401 344.90625 1571.186401 352.742676 L 1571.186401 1083.553711 C 1571.186401 1189.92334 1585.61792 1256.652344 1627.895874 1303.075684 C 1671.811157 1351.423584 1738.169312 1377.032715 1838.848145 1377.032715"/>
    <path id="diamond1" fill="#de484e" stroke="none" d="M 1800.030518 2098.711914 L 2214.994141 1880.927246 L 1800.030518 1662.988403 C 1262.578369 1872.09082 1217.28833 1872.09082 679.944397 1662.988403 L 265.001526 1880.927246 L 679.944397 2098.711914 C 1217.28833 1889.709473 1262.578369 1889.709473 1800.030518 2098.711914"/>
    <path id="diamond2" fill="#de484e" stroke="none" d="M 679.942322 2201.469727 L 265.003662 2419.358398 L 679.942322 2637.138916 C 1217.286255 2428.136475 1262.580444 2428.136475 1800.028564 2637.138916 L 2214.996338 2419.358398 L 1800.028564 2201.469727 C 1262.580444 2410.521973 1217.286255 2410.521973 679.942322 2201.469727"/>
    <path id="diamond3" fill="#de484e" stroke="none" d="M 679.942322 2739.950439 L 265.003662 2957.730957 L 679.942322 3175.569824 C 1217.286255 2966.571533 1262.580444 2966.571533 1800.028564 3175.569824 L 2214.996338 2957.730957 L 1800.028564 2739.950439 C 1262.580444 2948.94873 1217.286255 2948.94873 679.942322 2739.950439"/>
</svg>
